<svg width="48" height="46" viewBox="0 0 48 46" fill="none" xmlns="http://www.w3.org/2000/svg">
<path d="M30.8438 23.3438L25.6562 28.8438C25.5625 28.9688 25.4062 29 25.2812 29C25.1562 29 25.0312 28.9688 24.9375 28.875C24.7188 28.6875 24.7188 28.375 24.9062 28.1875L29.2812 23.5H17.5C17.2188 23.5 17 23.2812 17 23.0312C17 22.7812 17.2188 22.5 17.5 22.5H29.2812L24.9062 17.8438C24.7188 17.6562 24.7188 17.3438 24.9375 17.1562C25.1562 16.9688 25.4688 16.9688 25.6562 17.1875L30.8438 22.6875C31.0312 22.875 31.0312 23.1562 30.8438 23.3438Z" fill="white"/>
<rect x="1" y="1" width="46" height="44" rx="22" stroke="white"/>
</svg>
