<svg width="50" height="50" viewBox="0 0 50 50" fill="none" xmlns="http://www.w3.org/2000/svg">
<rect width="50" height="50" rx="5" fill="#F0FDFF"/>
<path d="M25.75 24.25H39.25C39.625 24.25 40 24.625 40 25C40 25.4219 39.625 25.75 39.25 25.75H33.25V28H36.25C37.4688 28 38.5 29.0312 38.5 30.25V34.75C38.5 36.0156 37.4688 37 36.25 37H28.75C27.4844 37 26.5 36.0156 26.5 34.75V30.25C26.5 29.0312 27.4844 28 28.75 28H31.75V25.75H18.25V28H21.25C22.4688 28 23.5 29.0312 23.5 30.25V34.75C23.5 36.0156 22.4688 37 21.25 37H13.75C12.4844 37 11.5 36.0156 11.5 34.75V30.25C11.5 29.0312 12.4844 28 13.75 28H16.75V25.75H10.75C10.3281 25.75 10 25.4219 10 25C10 24.625 10.3281 24.25 10.75 24.25H24.25V22H21.25C19.9844 22 19 21.0156 19 19.75V15.25C19 14.0312 19.9844 13 21.25 13H28.75C29.9688 13 31 14.0312 31 15.25V19.75C31 21.0156 29.9688 22 28.75 22H25.75V24.25ZM28.75 14.5H21.25C20.8281 14.5 20.5 14.875 20.5 15.25V19.75C20.5 20.1719 20.8281 20.5 21.25 20.5H28.75C29.125 20.5 29.5 20.1719 29.5 19.75V15.25C29.5 14.875 29.125 14.5 28.75 14.5ZM28.75 29.5C28.3281 29.5 28 29.875 28 30.25V34.75C28 35.1719 28.3281 35.5 28.75 35.5H36.25C36.625 35.5 37 35.1719 37 34.75V30.25C37 29.875 36.625 29.5 36.25 29.5H28.75ZM13.75 29.5C13.3281 29.5 13 29.875 13 30.25V34.75C13 35.1719 13.3281 35.5 13.75 35.5H21.25C21.625 35.5 22 35.1719 22 34.75V30.25C22 29.875 21.625 29.5 21.25 29.5H13.75Z" fill="#0D4048"/>
</svg>
