<svg width="636" height="808" viewBox="0 0 636 808" fill="none" xmlns="http://www.w3.org/2000/svg">
<path d="M679.5 1044C590.267 1044 501.907 1026.42 419.467 992.276C337.026 958.128 262.118 908.076 199.021 844.979C135.923 781.882 85.8719 706.974 51.7238 624.533C17.5758 542.093 -4.66266e-06 453.733 8.10296e-06 364.5C2.08686e-05 275.267 17.5758 186.907 51.7239 104.466C85.872 22.0258 135.924 -52.8817 199.021 -115.979C262.118 -179.077 337.026 -229.128 419.467 -263.276C501.907 -297.424 590.267 -315 679.5 -315L679.5 64.104C640.052 64.104 600.989 71.874 564.543 86.9703C528.098 102.067 494.982 124.194 467.088 152.088C439.194 179.982 417.067 213.098 401.97 249.543C386.874 285.989 379.104 325.051 379.104 364.5C379.104 403.949 386.874 443.011 401.97 479.457C417.067 515.902 439.194 549.018 467.088 576.912C494.982 604.806 528.098 626.933 564.543 642.03C600.989 657.126 640.051 664.896 679.5 664.896L679.5 1044Z" fill="#FEC9C0"/>
</svg>
