<svg width="50" height="50" viewBox="0 0 50 50" fill="none" xmlns="http://www.w3.org/2000/svg">
<rect width="50" height="50" rx="5" fill="#F0FDFF"/>
<path d="M26.5 24.25C26.0781 24.25 25.75 23.9219 25.75 23.5V13.75C25.75 13.375 26.0312 13.0469 26.4062 13.0469L26.5 13C32.2656 13 37 17.7344 37 23.5L36.9531 23.5938C36.9531 23.9688 36.625 24.25 36.25 24.25H26.5ZM27.25 14.5469V22.75H35.4531C35.0781 18.3906 31.6094 14.9219 27.25 14.5469ZM23.5 15.3438V26.5L30.8125 33.8594C31.1406 34.1875 31.0938 34.7031 30.7656 34.9375C28.8906 36.25 26.6406 37 24.25 37C18.0156 37 13 31.9844 13 25.75C13 20.0781 17.2188 15.3906 22.6562 14.6406C23.125 14.5469 23.5 14.9219 23.5 15.3438ZM22.4219 27.5781C22.1406 27.2969 22 26.9219 22 26.5V16.2812C17.6875 17.3125 14.5 21.1562 14.5 25.75C14.5 31.1406 18.8594 35.5 24.25 35.5C25.9844 35.5 27.625 35.0312 29.0781 34.2344L22.4219 27.5781ZM34.8906 34C34.6094 34.2344 34.1875 34.2344 33.9062 33.9531L27.7656 27.8125C27.2969 27.3438 27.625 26.5 28.2812 26.5H37.6562C38.0781 26.5 38.4531 26.875 38.3594 27.2969C38.0312 29.9219 36.7656 32.2656 34.8906 34ZM36.7188 28H30.1094L34.4219 32.3594C35.5469 31.1406 36.3438 29.6406 36.7188 28Z" fill="#0D4048"/>
</svg>
