<svg width="50" height="50" viewBox="0 0 50 50" fill="none" xmlns="http://www.w3.org/2000/svg">
<rect width="50" height="50" rx="5" fill="#F0FDFF"/>
<path d="M36.7656 14.7812C37.0469 15.0625 37.0469 15.5312 36.7188 15.8125L28.4688 23.3125C28.1875 23.5938 27.7188 23.5938 27.4375 23.3125L21.9062 17.7344L14.1719 23.3594C13.8438 23.6406 13.375 23.5469 13.1406 23.2188C12.8594 22.8906 12.9531 22.4219 13.2812 22.1875L21.5312 16.1875C21.8125 15.9531 22.2344 16 22.5156 16.2344L28 21.7188L35.7344 14.7344C36.0156 14.4531 36.4844 14.4531 36.7656 14.7812ZM18.25 30.25V33.25C18.25 34.5156 17.2188 35.5 16 35.5C14.7344 35.5 13.75 34.5156 13.75 33.25V30.25C13.75 29.0312 14.7344 28 16 28C17.2188 28 18.25 29.0312 18.25 30.25ZM16.75 33.25V30.25C16.75 29.875 16.375 29.5 16 29.5C15.5781 29.5 15.25 29.875 15.25 30.25V33.25C15.25 33.6719 15.5781 34 16 34C16.375 34 16.75 33.6719 16.75 33.25ZM19.75 25.75C19.75 24.5312 20.7344 23.5 22 23.5C23.2188 23.5 24.25 24.5312 24.25 25.75V33.25C24.25 34.5156 23.2188 35.5 22 35.5C20.7344 35.5 19.75 34.5156 19.75 33.25V25.75ZM22 25C21.5781 25 21.25 25.375 21.25 25.75V33.25C21.25 33.6719 21.5781 34 22 34C22.375 34 22.75 33.6719 22.75 33.25V25.75C22.75 25.375 22.375 25 22 25ZM30.25 28.75V33.25C30.25 34.5156 29.2188 35.5 28 35.5C26.7344 35.5 25.75 34.5156 25.75 33.25V28.75C25.75 27.5312 26.7344 26.5 28 26.5C29.2188 26.5 30.25 27.5312 30.25 28.75ZM28.75 33.25V28.75C28.75 28.375 28.375 28 28 28C27.5781 28 27.25 28.375 27.25 28.75V33.25C27.25 33.6719 27.5781 34 28 34C28.375 34 28.75 33.6719 28.75 33.25ZM31.75 25.75C31.75 24.5312 32.7344 23.5 34 23.5C35.2188 23.5 36.25 24.5312 36.25 25.75V33.25C36.25 34.5156 35.2188 35.5 34 35.5C32.7344 35.5 31.75 34.5156 31.75 33.25V25.75ZM34 25C33.5781 25 33.25 25.375 33.25 25.75V33.25C33.25 33.6719 33.5781 34 34 34C34.375 34 34.75 33.6719 34.75 33.25V25.75C34.75 25.375 34.375 25 34 25Z" fill="#0D4048"/>
</svg>
