<svg width="50" height="50" viewBox="0 0 50 50" fill="none" xmlns="http://www.w3.org/2000/svg">
<rect width="50" height="50" rx="5" fill="#F0FDFF"/>
<path d="M25.75 25.75C25.75 26.1719 25.375 26.5 24.9531 26.5C24.5781 26.5 24.2031 26.1719 24.2031 25.75V19.75C24.2031 19.375 24.5781 19 24.9531 19C25.375 19 25.75 19.375 25.75 19.75V25.75ZM23.8281 29.5C23.8281 28.8906 24.3438 28.375 24.9531 28.375C25.6094 28.375 26.125 28.8906 26.125 29.5C26.125 30.1562 25.6094 30.625 24.9531 30.625C24.3438 30.625 23.8281 30.1562 23.8281 29.5ZM14.4531 25C14.4531 19.2344 19.1875 14.5 24.9531 14.5C30.7656 14.5 35.5 19.2344 35.5 25C35.5 30.8125 30.7656 35.5 24.9531 35.5C19.1875 35.5 14.4531 30.8125 14.4531 25ZM24.9531 34C29.9688 34 34 29.9688 34 25C34 20.0312 29.9688 16 24.9531 16C19.9844 16 15.9531 20.0312 15.9531 25C15.9531 29.9688 19.9844 34 24.9531 34ZM11.4531 25C11.4531 27.7188 12.25 30.2031 13.6094 32.3125C13.8438 32.6406 13.75 33.1094 13.375 33.3438C13.0469 33.5781 12.5781 33.4844 12.3438 33.1094C10.8438 30.7656 10 28 10 25C10 22.0469 10.8438 19.2812 12.3438 16.9375C12.5781 16.5625 13.0469 16.4688 13.375 16.7031C13.75 16.9375 13.8438 17.4062 13.6094 17.7344C12.25 19.8438 11.4531 22.3281 11.4531 25ZM40 25C40 28 39.1094 30.7656 37.6094 33.1094C37.375 33.4844 36.9062 33.5781 36.5781 33.3438C36.2031 33.1094 36.1094 32.6406 36.3438 32.3125C37.7031 30.2031 38.5 27.7188 38.5 25C38.5 22.3281 37.7031 19.8438 36.3438 17.7344C36.1094 17.4062 36.2031 16.9375 36.5781 16.7031C36.9062 16.4688 37.375 16.5625 37.6094 16.9375C39.1094 19.2812 40 22.0469 40 25Z" fill="#0D4048"/>
</svg>
