<svg width="50" height="50" viewBox="0 0 50 50" fill="none" xmlns="http://www.w3.org/2000/svg">
<rect width="50" height="50" rx="5" fill="#F0FDFF"/>
<path d="M28.75 18.625L26.7812 18.3438L25.9375 16.5625C25.5625 15.8594 24.3906 15.8594 24.0156 16.5625L23.1719 18.3438L21.2031 18.625C20.7812 18.7188 20.4531 18.9531 20.3594 19.375C20.2188 19.75 20.3125 20.1719 20.5938 20.4531L22.0469 21.8125L21.6719 23.7812C21.625 24.2031 21.7656 24.5781 22.0938 24.8125C22.4219 25.0469 22.8438 25.0938 23.2188 24.9062L24.9531 23.9688L26.7344 24.9062C26.875 25 27.0625 25 27.2031 25C27.4375 25 27.6719 24.9531 27.8594 24.8125C28.1875 24.5781 28.3281 24.2031 28.2812 23.7812L27.9062 21.8125L29.3594 20.4531C29.6406 20.1719 29.7344 19.75 29.5938 19.375C29.5 18.9531 29.1719 18.6719 28.75 18.625ZM26.3125 21.2969L26.6406 23.125L24.9531 22.2812L23.3125 23.125L23.6406 21.2969L22.3281 19.9844L24.1562 19.75L25 18.0625L25.7969 19.75L27.625 19.9844L26.3125 21.2969ZM38.3125 16.6094C38.2188 16.2812 37.9375 16 37.5625 16H32.4531C32.4531 15.7188 32.4531 15.4375 32.4531 15.2031C32.4531 13.9844 31.4219 13 30.2031 13H19.75C18.5312 13 17.5 13.9844 17.5 15.2031C17.5 15.4375 17.5 15.7188 17.5 16H12.3906C12.0156 16 11.7344 16.2812 11.6406 16.6094C11.5938 16.7969 10.6562 21.4844 13.6094 25.7969C15.5312 28.7031 18.7188 30.6719 23.0781 31.75C23.7344 31.8906 24.2031 32.5 24.2031 33.2031V35.5H19.75C19.3281 35.5 18.9531 35.875 18.9531 36.25C18.9531 36.6719 19.3281 37 19.75 37H30.2031C30.5781 37 30.9062 36.6719 30.9062 36.25C30.9062 35.875 30.625 35.5 30.2031 35.5H25.7031V33.2031C25.7031 32.5 26.1719 31.9375 26.8281 31.75C31.1875 30.6719 34.375 28.7031 36.3438 25.7969C39.2969 21.4844 38.3594 16.7969 38.3125 16.6094ZM14.8281 25C12.8594 22.0469 12.9062 18.8125 13.0469 17.5H17.5C17.6406 21.1562 18.4375 26.3594 21.2969 29.6406C18.4375 28.6094 16.2344 27.0625 14.8281 25ZM25 30.5781C19.2812 28.0469 18.9062 19.0469 19 15.25C19 14.8281 19.3281 14.5 19.75 14.5H30.2031C30.625 14.5 30.9531 14.8281 30.9531 15.25C31.0469 19.0469 30.6719 28.0469 25 30.5781ZM35.125 25C33.7188 27.0625 31.5156 28.6094 28.6562 29.6406C31.5156 26.3594 32.3125 21.1562 32.4531 17.5H36.9062C37.0469 18.8125 37.0938 22.0469 35.125 25Z" fill="#0D4048"/>
</svg>
