<svg width="50" height="50" viewBox="0 0 50 50" fill="none" xmlns="http://www.w3.org/2000/svg">
<rect width="50" height="50" rx="5" fill="#F0FDFF"/>
<path d="M25.75 31.375C25.75 31.7969 25.375 32.125 25 32.125C24.5781 32.125 24.25 31.7969 24.25 31.375V27.625C24.25 27.25 24.5781 26.875 25 26.875C25.375 26.875 25.75 27.25 25.75 27.625V31.375ZM25 13C28.2812 13 31 15.7188 31 19V22H31.75C33.8125 22 35.5 23.6875 35.5 25.75V33.25C35.5 35.3594 33.8125 37 31.75 37H18.25C16.1406 37 14.5 35.3594 14.5 33.25V25.75C14.5 23.6875 16.1406 22 18.25 22H19V19C19 15.7188 21.6719 13 25 13ZM25 14.5C22.4688 14.5 20.5 16.5156 20.5 19V22H29.5V19C29.5 16.5156 27.4844 14.5 25 14.5ZM18.25 23.5C16.9844 23.5 16 24.5312 16 25.75V33.25C16 34.5156 16.9844 35.5 18.25 35.5H31.75C32.9688 35.5 34 34.5156 34 33.25V25.75C34 24.5312 32.9688 23.5 31.75 23.5H18.25Z" fill="#0D4048"/>
</svg>
